<svg width="16" height="16" viewBox="0 0 16 16" fill="none" xmlns="http://www.w3.org/2000/svg">
<path d="M15.3262 0.307617H13.8799C13.6778 0.307402 13.5137 0.471187 13.5135 0.673494C13.5135 0.679433 13.5136 0.685371 13.5139 0.69131L13.6359 3.21755C12.2 1.52436 10.0921 0.549371 7.87288 0.551802C3.70405 0.551833 0.304573 3.95626 0.307619 8.12783C0.310665 12.3061 3.69673 15.6922 7.87288 15.6922C9.7462 15.6949 11.5534 14.9994 12.9422 13.7414C13.0928 13.6064 13.1057 13.3749 12.9708 13.2241C12.9663 13.2191 12.9616 13.2141 12.9568 13.2093L11.9197 12.1715C11.7835 12.0352 11.565 12.0279 11.42 12.1547C9.19383 14.1146 5.80137 13.8975 3.84273 11.6699C1.88408 9.4422 2.101 6.04752 4.32719 4.08762C6.55337 2.12771 9.94583 2.34475 11.9045 4.57242C12.058 4.74703 12.2 4.93143 12.3297 5.12445L9.23251 4.9758C9.03057 4.9662 8.85906 5.1222 8.84946 5.32429C8.84918 5.33023 8.84903 5.33617 8.84906 5.34211V6.78931C8.84906 6.99161 9.01294 7.15561 9.21512 7.15561H15.3262C15.5284 7.15561 15.6923 6.99161 15.6923 6.78931V0.673925C15.6922 0.471617 15.5283 0.307617 15.3262 0.307617Z" fill="#1F3641"/>
</svg>
